<?xml version="1.0" encoding="utf-8"?>
<!-- Generator: Adobe Illustrator 21.1.0, SVG Export Plug-In . SVG Version: 6.00 Build 0)  -->
<svg version="1.1" xmlns="http://www.w3.org/2000/svg" xmlns:xlink="http://www.w3.org/1999/xlink" x="0px" y="0px"
	 viewBox="0 0 127 119.5" style="enable-background:new 0 0 127 119.5;" xml:space="preserve">
<style type="text/css">
	.st0{fill:#F4C53D;}
	.st1{fill:#272425;}
</style>
<g id="Layer_1">
	<g>
		<path class="st0" d="M88.4,40.5c0-0.5-0.2-10.4-6.7-17.4c-9.1-9.7-19.8-8.9-19.8-8.9v4.5c0,0,8.5-0.8,16.5,7.6
			c5.1,5.3,5.4,13,5.4,14.2l-3.6,0c0-1.1-0.4-7.7-5.3-12.6c-5.9-5.9-13.1-5.5-13.1-5.5v4.5c0,0,5.6-0.1,9.6,3.8c4,4,4.3,8.9,4.3,9.8
			l-3.4,0c0-0.4,0-4-3-7.2c-3.1-3.3-7.4-3-7.4-3v4.5c0,0,2.3,0,4,1.5c1.7,1.5,1.9,4.1,1.9,4.2l-5.9,0c-0.2-14.5-12-26.3-26.5-26.3v0
			h-13v0.7c2.2,0.6,4.3,1.7,6.1,3.1h-6.1v0.7c7,2,12.3,8.1,13,15.5l0,6.6l0,0c0.1,14.6,11.9,26.4,26.5,26.4
			C76.6,67.1,88.4,55.2,88.4,40.5L88.4,40.5z M44.5,29.4c-2.5,0-4.5-2-4.5-4.5c0-2.5,2-4.5,4.5-4.5c2.5,0,4.5,2,4.5,4.5
			C49,27.4,47,29.4,44.5,29.4z"/>
		<circle class="st0" cx="44.5" cy="25" r="2.2"/>
	</g>
	<g>
		<path class="st1" d="M11.8,103.2l1.8-0.5l6.8-18.9H24l6.6,18.9l2.1,0.5v1.6h-8.3v-1.6l2-0.5l-0.9-3h-7.7l-1,3l2.1,0.5v1.6h-7.1
			V103.2z M24.7,97.6l-2-6.4l-1.1-3.9l-3.3,10.2H24.7z"/>
		<path class="st1" d="M34,85.6L32,85v-1.6l5.1-0.6l0.7,0.2v7.4c0.4-0.3,1-0.6,1.6-0.8c0.6-0.2,1.4-0.4,2.3-0.4
			c0.8,0,1.6,0.1,2.3,0.4c0.8,0.3,1.4,0.7,2,1.3c0.6,0.6,1.1,1.3,1.4,2.3c0.4,0.9,0.5,2.1,0.5,3.4c0,1.1-0.2,2.2-0.6,3.2
			s-0.9,1.9-1.6,2.7c-0.7,0.8-1.6,1.4-2.6,1.9c-1,0.5-2.1,0.7-3.3,0.7c-0.7,0-1.3,0-2-0.1c-0.7-0.1-1.3-0.2-1.8-0.3
			c-0.5-0.1-1-0.2-1.4-0.4c-0.4-0.1-0.6-0.2-0.7-0.3V85.6z M37.8,102.3c0.1,0.3,0.4,0.5,0.8,0.8c0.4,0.2,1,0.3,1.7,0.3
			c0.5,0,0.9-0.1,1.4-0.3c0.5-0.2,0.9-0.6,1.2-1.1c0.4-0.5,0.7-1.1,0.9-2c0.2-0.8,0.4-1.8,0.4-3c0-1-0.1-1.9-0.3-2.6
			c-0.2-0.7-0.5-1.3-0.9-1.8c-0.4-0.5-0.8-0.8-1.3-1c-0.5-0.2-1-0.3-1.5-0.3c-0.6,0-1,0.1-1.4,0.2c-0.4,0.1-0.7,0.3-1,0.4V102.3z"/>
		<path class="st1" d="M48.4,103.2l2-0.4v-9.5l-1.8-1.5v-1.1l4.7-1.4l0.9,0.3v13.3l2.1,0.3v1.5h-7.9V103.2z M51.8,86.6
			c-0.3,0-0.6,0-0.9-0.1c-0.3-0.1-0.5-0.2-0.7-0.4c-0.2-0.2-0.4-0.4-0.5-0.7c-0.1-0.3-0.2-0.6-0.2-0.9c0-0.4,0.1-0.7,0.2-1
			c0.2-0.3,0.4-0.6,0.6-0.8c0.3-0.2,0.6-0.4,0.9-0.5c0.3-0.1,0.7-0.2,1-0.2c0.4,0,0.8,0.1,1,0.2c0.3,0.1,0.5,0.3,0.7,0.5
			c0.2,0.2,0.3,0.4,0.4,0.7c0.1,0.3,0.1,0.5,0.1,0.8c0,0.4-0.1,0.7-0.2,1.1c-0.2,0.3-0.4,0.6-0.6,0.8c-0.3,0.2-0.5,0.4-0.9,0.5
			C52.5,86.5,52.1,86.6,51.8,86.6z"/>
		<path class="st1" d="M57.1,103.2l2.2-0.5V85.9l-2.1-0.3v-1.8H61c0.1,0,0.3,0,0.6-0.1c0.3,0,0.7,0,1.1-0.1c0.4,0,0.9,0,1.4,0
			c0.5,0,1.1,0,1.6,0c1.2,0,2.2,0.1,3.1,0.3c0.9,0.2,1.6,0.5,2.2,1c0.6,0.4,1.1,0.9,1.4,1.6c0.3,0.6,0.5,1.3,0.5,2
			c0,0.6-0.1,1.1-0.2,1.7c-0.1,0.5-0.4,1-0.7,1.5c-0.3,0.4-0.7,0.8-1.2,1.1c-0.5,0.3-1,0.6-1.6,0.7c0.7,0,1.3,0.1,2,0.4
			c0.6,0.3,1.2,0.6,1.6,1.1c0.5,0.5,0.8,1,1.1,1.6c0.3,0.6,0.4,1.3,0.4,2c0,1-0.2,1.9-0.5,2.7c-0.3,0.8-0.9,1.5-1.6,2
			c-0.7,0.5-1.7,1-2.9,1.3c-1.2,0.3-2.6,0.4-4.2,0.4c-0.4,0-0.8,0-1.2,0c-0.4,0-0.8,0-1.2,0c-0.4,0-0.8,0-1.2-0.1
			c-0.4,0-0.8,0-1.3,0h-3.2V103.2z M63.1,102.7c0.1,0.1,0.3,0.1,0.5,0.2c0.2,0.1,0.5,0.1,0.7,0.1c0.3,0,0.6,0.1,0.9,0.1
			c0.3,0,0.6,0,0.9,0c0.7,0,1.3-0.1,1.8-0.3c0.5-0.2,1-0.5,1.3-0.9c0.4-0.4,0.6-0.8,0.8-1.3c0.2-0.5,0.3-1.1,0.3-1.7
			c0-0.6-0.1-1.2-0.2-1.7c-0.2-0.5-0.4-0.9-0.7-1.3c-0.3-0.4-0.8-0.6-1.3-0.8c-0.5-0.2-1.2-0.3-1.9-0.3c-0.5,0-1,0-1.6,0
			c-0.5,0-1,0-1.5,0.1V102.7z M63.1,92.9c0.3,0.1,0.6,0.1,1.1,0.1c0.4,0,0.9,0,1.4,0c0.8,0,1.4-0.1,1.9-0.4c0.5-0.2,0.9-0.5,1.2-0.9
			c0.3-0.4,0.5-0.8,0.6-1.3c0.1-0.5,0.2-1,0.2-1.5c0-0.5-0.1-1-0.2-1.4c-0.2-0.4-0.4-0.8-0.7-1.1c-0.3-0.3-0.8-0.5-1.3-0.7
			c-0.5-0.2-1.1-0.3-1.8-0.3c-0.1,0-0.3,0-0.5,0c-0.2,0-0.4,0-0.6,0c-0.2,0-0.4,0-0.6,0.1c-0.2,0-0.3,0.1-0.4,0.1L63.1,92.9z"/>
		<path class="st1" d="M74.9,103.2l2-0.4v-9.5l-1.8-1.5v-1.1l4.7-1.4l0.9,0.3v13.3l2.1,0.3v1.5h-7.9V103.2z M78.3,86.6
			c-0.3,0-0.6,0-0.9-0.1c-0.3-0.1-0.5-0.2-0.7-0.4c-0.2-0.2-0.4-0.4-0.5-0.7c-0.1-0.3-0.2-0.6-0.2-0.9c0-0.4,0.1-0.7,0.2-1
			c0.2-0.3,0.4-0.6,0.6-0.8c0.3-0.2,0.6-0.4,0.9-0.5c0.3-0.1,0.7-0.2,1-0.2c0.4,0,0.8,0.1,1,0.2c0.3,0.1,0.5,0.3,0.7,0.5
			c0.2,0.2,0.3,0.4,0.4,0.7c0.1,0.3,0.1,0.5,0.1,0.8c0,0.4-0.1,0.7-0.2,1.1c-0.2,0.3-0.4,0.6-0.6,0.8c-0.3,0.2-0.5,0.4-0.9,0.5
			C79,86.5,78.7,86.6,78.3,86.6z"/>
		<path class="st1" d="M83.8,103.2l1.9-0.3v-9.8L83.8,92v-1.3l4.4-1.3l0.8,0.3V92c0.1-0.4,0.4-0.7,0.7-1c0.3-0.3,0.7-0.6,1.1-0.8
			c0.4-0.2,0.8-0.4,1.2-0.6c0.4-0.1,0.8-0.2,1.2-0.2c0.3,0,0.6,0,0.8,0c0.3,0,0.4,0.1,0.5,0.1v3.6c-0.3-0.2-0.6-0.3-1-0.4
			c-0.4-0.1-0.9-0.2-1.3-0.2c-0.4,0-0.7,0-1,0.1c-0.3,0-0.5,0.1-0.8,0.2c-0.2,0.1-0.4,0.1-0.6,0.2c-0.2,0.1-0.3,0.2-0.4,0.2v9.6
			l3.4,0.4v1.5h-9.2V103.2z"/>
		<path class="st1" d="M101.2,105.1c-0.7,0-1.5-0.1-2.2-0.4c-0.7-0.3-1.4-0.7-2-1.4c-0.6-0.6-1.1-1.4-1.4-2.4
			c-0.4-1-0.6-2.1-0.6-3.5c0-1.2,0.2-2.3,0.7-3.3c0.4-1,1-1.9,1.8-2.6c0.8-0.7,1.6-1.3,2.7-1.7c1-0.4,2.1-0.6,3.3-0.6
			c0.3,0,0.6,0,0.9,0c0.3,0,0.7,0.1,1.1,0.2v-3.8l-2.9-0.6v-1.6l6-0.6l0.8,0.3v20.1h1.9v1.3c-0.3,0.2-0.8,0.3-1.4,0.5
			c-0.6,0.1-1.3,0.2-2.2,0.2c-0.5,0-1-0.1-1.3-0.3c-0.3-0.2-0.6-0.5-0.7-1c-0.2,0.1-0.4,0.3-0.7,0.4c-0.3,0.1-0.6,0.3-0.9,0.4
			c-0.4,0.1-0.8,0.2-1.2,0.3C102.2,105.1,101.7,105.1,101.2,105.1z M102.3,103c0.4,0.1,0.8,0.1,1.2,0c0.4,0,0.8-0.1,1.1-0.2
			c0.3-0.1,0.6-0.2,0.8-0.3V91.6c-0.6-0.5-1.4-0.7-2.4-0.7c-0.2,0-0.5,0-0.8,0.1c-0.3,0.1-0.6,0.2-0.9,0.3c-0.3,0.2-0.6,0.4-0.9,0.7
			c-0.3,0.3-0.5,0.6-0.8,1c-0.2,0.4-0.4,0.9-0.5,1.5c-0.1,0.6-0.2,1.3-0.2,2.1c0,1,0.1,1.9,0.2,2.6c0.2,0.8,0.4,1.4,0.7,1.9
			c0.3,0.5,0.7,0.9,1.1,1.2C101.4,102.7,101.8,102.9,102.3,103z"/>
	</g>
	<g>
		<path class="st1" d="M113.2,82.9c1.2,0,2.3,1,2.3,2.3c0,1.3-1,2.3-2.3,2.3c-1.2,0-2.3-1-2.3-2.3C110.9,83.9,112,82.9,113.2,82.9z
			 M113.2,87.1c1,0,1.9-0.8,1.9-1.9c0-1.1-0.8-1.9-1.9-1.9c-1.1,0-1.9,0.8-1.9,1.9C111.4,86.3,112.2,87.1,113.2,87.1z M112.3,83.9h1
			c0.6,0,0.9,0.2,0.9,0.8c0,0.5-0.3,0.7-0.7,0.7l0.8,1.2h-0.4l-0.7-1.1h-0.4v1.1h-0.4V83.9z M112.8,85h0.4c0.4,0,0.7,0,0.7-0.4
			c0-0.4-0.3-0.4-0.6-0.4h-0.5V85z"/>
	</g>
</g>
<g id="Layer_3">
</g>
</svg>
